<svg width="159" height="17" viewBox="0 0 159 17" fill="none" xmlns="http://www.w3.org/2000/svg">
<path d="M0 0.386363H7.37343C8.55942 0.386363 9.52694 0.553029 10.276 0.886363C11.025 1.2197 11.6024 1.63636 12.0082 2.13636C12.4139 2.63636 12.687 3.18182 12.8274 3.77273C12.9835 4.36364 13.0615 4.90909 13.0615 5.40909C13.0615 5.90909 12.9835 6.45454 12.8274 7.04545C12.687 7.62121 12.4139 8.15909 12.0082 8.65909C11.6024 9.15909 11.025 9.57576 10.276 9.90909C9.52694 10.2273 8.55942 10.3864 7.37343 10.3864H2.92596V16.6136H0V0.386363ZM2.92596 8.06818H7.20957C7.53728 8.06818 7.87279 8.02273 8.21611 7.93182C8.55942 7.84091 8.87152 7.69697 9.15242 7.5C9.44891 7.28788 9.68299 7.01515 9.85465 6.68182C10.0419 6.33333 10.1355 5.90151 10.1355 5.38636C10.1355 4.85606 10.0575 4.41667 9.90146 4.06818C9.74541 3.7197 9.53474 3.44697 9.26945 3.25C9.00417 3.03788 8.69987 2.89394 8.35655 2.81818C8.01324 2.74242 7.64652 2.70454 7.25639 2.70454H2.92596V8.06818Z" fill="white"/>
<path d="M17.41 0.386363H20.5233L26.9604 16.6136H23.8237L22.2554 12.3182H15.5842L14.0159 16.6136H10.9963L17.41 0.386363ZM16.3801 10.1591H21.483L18.9784 3.18182H18.9081L16.3801 10.1591Z" fill="white"/>
<path d="M27.6156 0.386363H35.5976C37.4391 0.386363 38.8201 0.772726 39.7408 1.54545C40.6615 2.31818 41.1219 3.39394 41.1219 4.77273C41.1219 5.54545 41.0048 6.18939 40.7707 6.70454C40.5367 7.20454 40.2636 7.61364 39.9515 7.93182C39.6394 8.23485 39.3273 8.45455 39.0152 8.59091C38.7187 8.72727 38.5002 8.81818 38.3598 8.86364V8.90909C38.6094 8.93939 38.8747 9.01515 39.1556 9.13636C39.4521 9.25757 39.7252 9.45454 39.9749 9.72727C40.2246 9.98485 40.4274 10.3258 40.5835 10.75C40.7551 11.1742 40.841 11.7045 40.841 12.3409C40.841 13.2955 40.9112 14.1667 41.0516 14.9545C41.2077 15.7273 41.4418 16.2803 41.7539 16.6136H38.6172C38.3988 16.2652 38.2661 15.8788 38.2193 15.4545C38.1881 15.0303 38.1725 14.6212 38.1725 14.2273C38.1725 13.4848 38.1257 12.8485 38.032 12.3182C37.9384 11.7727 37.7668 11.3258 37.5171 10.9773C37.2674 10.6136 36.9241 10.3485 36.4871 10.1818C36.0658 10.0152 35.5196 9.93182 34.8486 9.93182H30.5416V16.6136H27.6156V0.386363ZM30.5416 7.77273H35.3402C36.2765 7.77273 36.9865 7.56061 37.4703 7.13636C37.954 6.69697 38.1959 6.04545 38.1959 5.18182C38.1959 4.66667 38.1179 4.25 37.9618 3.93182C37.8058 3.59848 37.5873 3.34091 37.3064 3.15909C37.0411 2.97727 36.729 2.85606 36.3701 2.79545C36.0268 2.73485 35.6679 2.70454 35.2933 2.70454H30.5416V7.77273Z" fill="white"/>
<path d="M45.0801 11.2045C45.0801 11.8258 45.1894 12.3561 45.4078 12.7955C45.6263 13.2348 45.9306 13.5985 46.3208 13.8864C46.7109 14.1591 47.1556 14.3636 47.655 14.5C48.17 14.6212 48.7239 14.6818 49.3169 14.6818C49.9568 14.6818 50.5029 14.6136 50.9555 14.4773C51.408 14.3258 51.7747 14.1364 52.0556 13.9091C52.3365 13.6818 52.5394 13.4242 52.6642 13.1364C52.7891 12.8333 52.8515 12.5303 52.8515 12.2273C52.8515 11.6061 52.7033 11.1515 52.4068 10.8636C52.1259 10.5606 51.8138 10.3485 51.4705 10.2273C50.8775 10.0152 50.183 9.81818 49.3872 9.63636C48.6069 9.43939 47.6394 9.18939 46.4846 8.88636C45.7668 8.70455 45.166 8.4697 44.6822 8.18182C44.2141 7.87879 43.8395 7.54545 43.5586 7.18182C43.2777 6.81818 43.0749 6.43182 42.95 6.02273C42.8408 5.61364 42.7862 5.19697 42.7862 4.77273C42.7862 3.95454 42.9578 3.25 43.3012 2.65909C43.6601 2.05303 44.1282 1.55303 44.7056 1.15909C45.283 0.765151 45.9384 0.477272 46.6719 0.295453C47.4053 0.0984845 48.1466 0 48.8956 0C49.7695 0 50.5888 0.113636 51.3534 0.340909C52.1337 0.55303 52.8125 0.878787 53.3899 1.31818C53.9829 1.75757 54.451 2.30303 54.7943 2.95455C55.1377 3.59091 55.3093 4.33333 55.3093 5.18182H52.3834C52.3053 4.13636 51.9386 3.40151 51.2832 2.97727C50.6278 2.53788 49.7929 2.31818 48.7786 2.31818C48.4352 2.31818 48.0841 2.35606 47.7252 2.43182C47.3663 2.49242 47.0386 2.60606 46.7421 2.77273C46.4456 2.92424 46.1959 3.13636 45.993 3.40909C45.8058 3.68182 45.7122 4.02273 45.7122 4.43182C45.7122 5.00758 45.8916 5.46212 46.2505 5.79545C46.6251 6.11364 47.1088 6.35606 47.7018 6.52273C47.7642 6.53788 48.0061 6.60606 48.4274 6.72727C48.8644 6.83333 49.3482 6.95454 49.8787 7.09091C50.4093 7.22727 50.9243 7.36364 51.4236 7.5C51.9386 7.62121 52.3053 7.71212 52.5238 7.77273C53.07 7.93939 53.5459 8.16667 53.9517 8.45454C54.3574 8.74242 54.6929 9.07576 54.9582 9.45454C55.2391 9.81818 55.442 10.2121 55.5668 10.6364C55.7072 11.0606 55.7775 11.4848 55.7775 11.9091C55.7775 12.8182 55.5824 13.5985 55.1923 14.25C54.8178 14.8864 54.3184 15.4091 53.6942 15.8182C53.07 16.2273 52.3599 16.5227 51.5641 16.7045C50.7682 16.9015 49.9567 17 49.1297 17C48.1778 17 47.2805 16.8864 46.4378 16.6591C45.5951 16.4318 44.8617 16.0833 44.2375 15.6136C43.6133 15.1439 43.1139 14.5455 42.7394 13.8182C42.3648 13.0758 42.1698 12.2045 42.1542 11.2045H45.0801Z" fill="white"/>
<path d="M57.4028 0.386363H69.4344V2.84091H60.3288V7.09091H68.7556V9.40909H60.3288V14.1591H69.5983V16.6136H57.4028V0.386363Z" fill="white"/>
<path d="M82.4932 5.54545C82.3683 5.07576 82.1967 4.64394 81.9782 4.25C81.7597 3.85606 81.4788 3.51515 81.1355 3.22727C80.7922 2.93939 80.3865 2.7197 79.9183 2.56818C79.4658 2.40151 78.9352 2.31818 78.3266 2.31818C77.4371 2.31818 76.6646 2.49242 76.0092 2.84091C75.3694 3.18939 74.8466 3.65909 74.4409 4.25C74.0352 4.82576 73.7309 5.48485 73.528 6.22727C73.3408 6.9697 73.2471 7.72727 73.2471 8.5C73.2471 9.27273 73.3408 10.0303 73.528 10.7727C73.7309 11.5152 74.0352 12.1818 74.4409 12.7727C74.8466 13.3485 75.3694 13.8106 76.0092 14.1591C76.6646 14.5076 77.4371 14.6818 78.3266 14.6818C78.982 14.6818 79.5594 14.5758 80.0588 14.3636C80.5581 14.1364 80.9873 13.8333 81.3462 13.4545C81.7051 13.0606 81.986 12.6061 82.1889 12.0909C82.3917 11.5758 82.5244 11.0227 82.5868 10.4318H85.4425C85.3801 11.4015 85.1617 12.2879 84.7871 13.0909C84.4282 13.8939 83.9366 14.5909 83.3124 15.1818C82.6882 15.7576 81.9548 16.2045 81.1121 16.5227C80.2694 16.8409 79.3409 17 78.3266 17C77.0782 17 75.9546 16.7803 74.9559 16.3409C73.9728 15.8864 73.1379 15.2727 72.4513 14.5C71.7646 13.7273 71.2341 12.8258 70.8595 11.7955C70.5006 10.7652 70.3212 9.66667 70.3212 8.5C70.3212 7.34848 70.5006 6.25757 70.8595 5.22727C71.2341 4.19697 71.7646 3.29545 72.4513 2.52273C73.1379 1.75 73.9728 1.13636 74.9559 0.681817C75.9546 0.227272 77.0782 0 78.3266 0C79.2629 0 80.1446 0.128788 80.9717 0.386363C81.7987 0.628787 82.5244 0.992424 83.1486 1.47727C83.7884 1.94697 84.3034 2.52273 84.6935 3.20454C85.0836 3.88636 85.3255 4.66667 85.4191 5.54545H82.4932Z" fill="white"/>
<path d="M97.7709 5.02273C97.7397 4.32576 97.5836 3.7197 97.3028 3.20454C97.0375 2.68939 96.6707 2.25758 96.2026 1.90909C95.7344 1.56061 95.1727 1.30303 94.5172 1.13636C93.8774 0.954545 93.1752 0.863636 92.4105 0.863636C91.9424 0.863636 91.4352 0.916666 90.889 1.02273C90.3585 1.12879 89.8591 1.31818 89.3909 1.59091C88.9384 1.84848 88.5639 2.20455 88.2674 2.65909C87.9709 3.09848 87.8226 3.65151 87.8226 4.31818C87.8226 4.9697 87.9865 5.5 88.3142 5.90909C88.6419 6.31818 89.071 6.65151 89.6016 6.90909C90.1322 7.15151 90.7408 7.34848 91.4274 7.5C92.114 7.65151 92.8085 7.79545 93.5107 7.93182C94.2285 8.06818 94.923 8.23485 95.594 8.43182C96.2806 8.61364 96.8892 8.87121 97.4198 9.20454C97.966 9.52273 98.4029 9.94697 98.7306 10.4773C99.0583 10.9924 99.2222 11.6439 99.2222 12.4318C99.2222 13.2803 99.0349 13.9924 98.6604 14.5682C98.2859 15.1439 97.8099 15.6136 97.2325 15.9773C96.6707 16.3409 96.0387 16.5985 95.3365 16.75C94.6499 16.9167 93.9867 17 93.3469 17C92.3637 17 91.443 16.8939 90.5847 16.6818C89.7265 16.4848 88.9774 16.1591 88.3376 15.7045C87.6978 15.2348 87.1906 14.6364 86.8161 13.9091C86.4572 13.1818 86.2855 12.2955 86.3011 11.25H87.3311C87.2842 12.1439 87.4169 12.9015 87.729 13.5227C88.0411 14.1288 88.4702 14.6288 89.0164 15.0227C89.5782 15.4167 90.2336 15.7045 90.9827 15.8864C91.7317 16.053 92.5198 16.1364 93.3469 16.1364C93.8462 16.1364 94.3768 16.0758 94.9386 15.9545C95.516 15.8333 96.0387 15.6288 96.5069 15.3409C96.9907 15.053 97.3886 14.6742 97.7007 14.2045C98.0284 13.7348 98.1922 13.1439 98.1922 12.4318C98.1922 11.75 98.0284 11.197 97.7007 10.7727C97.373 10.3333 96.936 9.98485 96.3898 9.72727C95.8593 9.45454 95.2507 9.24242 94.564 9.09091C93.893 8.92424 93.1986 8.77273 92.4808 8.63636C91.7785 8.5 91.0841 8.34091 90.3975 8.15909C89.7109 7.97727 89.1022 7.73485 88.5717 7.43182C88.0411 7.11364 87.612 6.71212 87.2842 6.22727C86.9565 5.72727 86.7927 5.09091 86.7927 4.31818C86.7927 3.54545 86.9565 2.88636 87.2842 2.34091C87.6276 1.7803 88.0645 1.33333 88.5951 0.999999C89.1413 0.651514 89.7499 0.401514 90.4209 0.249999C91.0919 0.0833332 91.7551 0 92.4105 0C93.2844 0 94.0959 0.0984845 94.8449 0.295453C95.6096 0.477272 96.2728 0.772727 96.8346 1.18182C97.412 1.57576 97.8723 2.09091 98.2157 2.72727C98.559 3.36364 98.754 4.12879 98.8008 5.02273H97.7709Z" fill="white"/>
<path d="M98.3426 1.25V0.386363H111.147V1.25H105.248V16.6136H104.218V1.25H98.3426Z" fill="white"/>
<path d="M112.377 0.386363V10.1136C112.377 10.4318 112.392 10.803 112.424 11.2273C112.455 11.6515 112.533 12.0909 112.658 12.5455C112.783 12.9848 112.954 13.4242 113.173 13.8636C113.407 14.2879 113.719 14.6742 114.109 15.0227C114.499 15.3561 114.975 15.6288 115.537 15.8409C116.114 16.0379 116.809 16.1364 117.62 16.1364C118.65 16.1364 119.508 16 120.195 15.7273C120.897 15.4394 121.459 15.0379 121.88 14.5227C122.317 13.9924 122.629 13.3561 122.817 12.6136C123.004 11.8712 123.098 11.0379 123.098 10.1136V0.386363H124.127V10.1136C124.127 11.0833 124.018 11.9848 123.8 12.8182C123.597 13.6515 123.246 14.3788 122.746 15C122.247 15.6212 121.576 16.1136 120.733 16.4773C119.906 16.8258 118.869 17 117.62 17C116.637 17 115.794 16.8788 115.092 16.6364C114.39 16.3939 113.805 16.0833 113.336 15.7045C112.884 15.3106 112.525 14.8636 112.26 14.3636C111.994 13.8636 111.792 13.3636 111.651 12.8636C111.511 12.3485 111.425 11.8561 111.394 11.3864C111.362 10.9015 111.347 10.4773 111.347 10.1136V0.386363H112.377Z" fill="white"/>
<path d="M126.138 0.386363H131.615C133.113 0.386363 134.354 0.613636 135.337 1.06818C136.336 1.52273 137.131 2.12879 137.724 2.88636C138.317 3.64394 138.731 4.50758 138.965 5.47727C139.215 6.44697 139.34 7.44697 139.34 8.47727C139.34 9.62879 139.183 10.7045 138.871 11.7045C138.575 12.6894 138.107 13.5455 137.467 14.2727C136.827 15 136.016 15.5758 135.033 16C134.065 16.4091 132.91 16.6136 131.568 16.6136H126.138V0.386363ZM131.662 15.75C132.442 15.75 133.222 15.6364 134.003 15.4091C134.798 15.1667 135.516 14.7727 136.156 14.2273C136.796 13.6667 137.311 12.9242 137.701 12C138.107 11.0606 138.31 9.88636 138.31 8.47727C138.31 7.37121 138.193 6.42424 137.958 5.63636C137.74 4.84848 137.443 4.18939 137.069 3.65909C136.71 3.11364 136.289 2.68939 135.805 2.38636C135.337 2.06818 134.845 1.82576 134.33 1.65909C133.831 1.49242 133.324 1.38636 132.809 1.34091C132.309 1.2803 131.857 1.25 131.451 1.25H127.168V15.75H131.662Z" fill="white"/>
<path d="M140.814 0.386363H141.844V16.6136H140.814V0.386363Z" fill="white"/>
<path d="M159 8.5C159 9.68182 158.821 10.7955 158.462 11.8409C158.103 12.8712 157.58 13.7727 156.893 14.5455C156.222 15.303 155.395 15.9015 154.412 16.3409C153.429 16.7803 152.313 17 151.065 17C149.816 17 148.693 16.7803 147.694 16.3409C146.711 15.9015 145.876 15.303 145.189 14.5455C144.518 13.7727 144.003 12.8712 143.645 11.8409C143.286 10.7955 143.106 9.68182 143.106 8.5C143.106 7.31818 143.286 6.21212 143.645 5.18182C144.003 4.13636 144.518 3.23485 145.189 2.47727C145.876 1.70454 146.711 1.09848 147.694 0.659091C148.693 0.219697 149.816 0 151.065 0C152.313 0 153.429 0.219697 154.412 0.659091C155.395 1.09848 156.222 1.70454 156.893 2.47727C157.58 3.23485 158.103 4.13636 158.462 5.18182C158.821 6.21212 159 7.31818 159 8.5ZM144.136 8.5C144.136 9.54545 144.292 10.5303 144.604 11.4545C144.916 12.3788 145.369 13.1894 145.962 13.8864C146.555 14.5682 147.281 15.1136 148.139 15.5227C148.997 15.9318 149.972 16.1364 151.065 16.1364C152.157 16.1364 153.125 15.9318 153.967 15.5227C154.826 15.1136 155.551 14.5682 156.144 13.8864C156.737 13.1894 157.19 12.3788 157.502 11.4545C157.814 10.5303 157.97 9.54545 157.97 8.5C157.97 7.45454 157.814 6.4697 157.502 5.54545C157.19 4.62121 156.737 3.81818 156.144 3.13636C155.551 2.43939 154.826 1.88636 153.967 1.47727C153.125 1.06818 152.157 0.863636 151.065 0.863636C149.972 0.863636 148.997 1.06818 148.139 1.47727C147.281 1.88636 146.555 2.43939 145.962 3.13636C145.369 3.81818 144.916 4.62121 144.604 5.54545C144.292 6.4697 144.136 7.45454 144.136 8.5Z" fill="white"/>
</svg>
