<svg width="166" height="42" viewBox="0 0 166 42" fill="none" xmlns="http://www.w3.org/2000/svg">
<path d="M161.02 2.95995C161.02 1.70996 162.01 0.709961 163.25 0.709961C164.49 0.709961 165.48 1.70996 165.48 2.95995C165.48 4.21995 164.48 5.22993 163.25 5.22993C162.01 5.22993 161.02 4.21995 161.02 2.95995ZM165.13 2.95995C165.13 1.88996 164.3 1.02995 163.25 1.02995C162.21 1.02995 161.36 1.88996 161.36 2.95995C161.36 4.04995 162.19 4.90994 163.25 4.90994C164.29 4.90994 165.13 4.04995 165.13 2.95995ZM162.52 4.10994V1.80995H163.27C163.76 1.80995 164.09 2.05995 164.09 2.49995C164.09 2.78995 163.93 2.99995 163.62 3.09995C163.79 3.17995 163.87 3.33995 164 3.57995L164.23 4.09995H163.87L163.69 3.66994C163.53 3.31994 163.41 3.20995 163.1 3.20995H162.82V4.08994H162.52V4.10994ZM162.82 2.11994V2.94994H163.18C163.54 2.94994 163.77 2.81995 163.77 2.52995C163.77 2.26995 163.59 2.10995 163.26 2.10995H162.82V2.11994Z" fill="white"/>
<path d="M15.0695 25.4498C9.44953 25.4498 4.87953 20.8298 4.87953 15.1498C4.87953 12.4798 5.91952 10.0698 7.58952 8.24979C6.27952 7.53979 4.97952 6.79978 3.69952 6.02979C1.69952 8.48978 0.519531 11.6298 0.519531 15.0998V41.3498H4.87953V24.8098C7.37953 27.8598 11.1395 29.6398 15.1795 29.6398C22.5195 29.6398 28.2395 24.6198 29.3495 17.6098C27.9295 17.1298 26.5095 16.6198 25.1095 16.0998C24.6295 21.3298 20.3395 25.4498 15.0695 25.4498Z" fill="white"/>
<path d="M15.0692 4.89972C20.5692 4.89972 25.0291 9.34973 25.1791 14.8697C26.6191 15.3697 28.0591 15.8498 29.5091 16.2998C29.5391 15.8998 29.5692 15.4898 29.5692 15.0798C29.5692 7.01973 23.1991 0.699707 15.0791 0.699707C10.6591 0.699707 6.76914 2.56972 4.11914 5.54973C5.43914 6.29973 6.77915 6.99973 8.12915 7.68973C9.93915 5.97973 12.3792 4.89972 15.0692 4.89972Z" fill="white"/>
<path d="M46.4794 25.3598C42.7094 25.3598 39.4494 23.2398 37.6994 20.1398C35.9194 19.6598 34.1594 19.1398 32.3994 18.5898C33.8894 24.9498 39.3394 29.5498 46.0294 29.5498C50.3694 29.5498 54.3094 27.5099 56.7194 24.1299C55.2694 23.9099 53.8294 23.6798 52.3794 23.4198C50.7094 24.6398 48.6794 25.3598 46.4794 25.3598Z" fill="white"/>
<path d="M56.8291 29.0097H61.0291V24.7397C59.6291 24.5697 58.2291 24.3697 56.8291 24.1597V29.0097Z" fill="white"/>
<path d="M36.3395 15.1197C36.3395 9.4697 40.8795 4.8797 46.4695 4.8797C52.0895 4.8797 56.6595 9.4797 56.6595 15.1197C56.6595 17.6897 55.6795 20.0097 54.1195 21.8097C56.4095 22.1397 58.7195 22.4197 61.0195 22.6497V15.0597C61.0195 6.9997 54.6295 0.679688 46.4695 0.679688C38.3395 0.679688 31.9795 6.9997 31.9795 15.0597C31.9795 15.7497 32.0395 16.4197 32.1295 17.0797C33.7195 17.5397 35.3195 17.9797 36.9195 18.3897C36.5795 17.3597 36.3395 16.2697 36.3395 15.1197Z" fill="white"/>
<path d="M64.2197 29.0298H68.5797V25.4899C67.1197 25.3699 65.6697 25.2398 64.2197 25.0898V29.0298Z" fill="white"/>
<path d="M68.5795 12.2197C68.5795 7.8797 70.9395 5.17969 74.7395 5.17969C76.2295 5.17969 77.6195 5.54969 78.8695 6.27969L79.5795 6.6897V2.0997L79.3095 1.9697C77.8895 1.2897 76.2195 0.929688 74.4695 0.929688C68.2495 0.929688 64.2295 5.2997 64.2295 12.0497V22.9297C65.6795 23.0497 67.1395 23.1497 68.5895 23.2297V12.2197H68.5795Z" fill="white"/>
<path d="M85.7197 23.4298C85.1697 22.8898 84.6897 22.2298 84.2797 21.4398L84.0597 21.0098L80.4297 23.0098L80.6397 23.4098C80.6597 23.4598 80.6997 23.4998 80.7197 23.5498C81.0797 23.5498 81.4397 23.5598 81.8097 23.5498C83.0997 23.5398 84.4097 23.4898 85.7197 23.4298Z" fill="white"/>
<path d="M91.3198 29.5299C95.3698 29.5299 98.6198 27.9099 100.34 25.3799C94.4198 25.8699 88.4898 26.1399 82.5498 26.1299C84.6898 28.3399 87.6998 29.5299 91.3198 29.5299Z" fill="white"/>
<path d="M101.67 21.1699C101.67 15.1499 96.3299 13.9199 92.0399 12.9399C88.6699 12.1699 85.7699 11.4999 85.7699 8.96993C85.7699 6.43994 88.5399 5.07994 91.1499 5.07994C94.2199 5.07994 96.1199 6.07993 97.3099 8.30993L97.5399 8.73994L101.18 6.66993L100.96 6.25993C99.0699 2.82993 95.5699 0.939941 91.1099 0.939941C85.5899 0.939941 81.4199 4.41994 81.4199 9.02993C81.4199 15.0099 86.7099 16.1899 90.9499 17.1499C94.3699 17.9199 97.3199 18.5799 97.3199 21.2299C97.3199 21.7899 97.1799 22.2699 96.9799 22.6999C98.5099 22.5599 100.03 22.3899 101.56 22.2199C101.6 21.8599 101.67 21.5299 101.67 21.1699Z" fill="white"/>
<path d="M118.14 25.3898C116.14 25.3898 114.32 24.8499 112.79 23.9099C110.95 24.1799 109.1 24.4198 107.26 24.6498C109.84 27.6998 113.68 29.5798 118.14 29.5798C123.41 29.5798 127.65 27.1399 130.09 22.7099L130.32 22.2999L128.08 21.0898C127.44 21.2298 126.8 21.3698 126.17 21.5098C123.99 24.6698 120.65 25.3898 118.14 25.3898Z" fill="white"/>
<path d="M108.229 16.8299H129.899C130.219 16.7499 130.539 16.6599 130.859 16.5699V14.3099C130.859 6.2599 125.379 0.649902 117.529 0.649902C109.739 0.649902 103.869 6.8599 103.869 15.0899C103.869 17.5099 104.409 19.7499 105.359 21.7099C106.859 21.4899 108.359 21.2699 109.859 21.0299C109.049 19.8199 108.469 18.4099 108.229 16.8299ZM117.529 4.84991C122.629 4.84991 126.179 8.15991 126.479 13.1299H108.339C109.029 8.15991 112.669 4.84991 117.529 4.84991Z" fill="white"/>
<path d="M147.37 4.89972C150.66 4.89972 153.3 6.26972 155.09 8.83973C156.44 8.32973 157.79 7.80974 159.14 7.26973C156.68 3.03972 152.53 0.699707 147.38 0.699707C139.6 0.699707 133.27 7.17973 133.27 15.1398C133.27 15.3998 133.29 15.6598 133.31 15.9098C134.76 15.5098 136.21 15.0998 137.66 14.6698C137.89 9.33973 142.24 4.89972 147.37 4.89972Z" fill="white"/>
<path d="M155.63 20.6601C153.88 23.7101 150.94 25.3901 147.37 25.3901C143.24 25.3901 139.62 22.5201 138.24 18.6201C136.83 19.0001 135.42 19.3601 134 19.7101C134.71 21.8801 135.92 23.8601 137.58 25.5201C140.23 28.1501 143.66 29.5901 147.27 29.5901C147.3 29.5901 147.34 29.5901 147.37 29.5901C152.65 29.5901 156.89 27.1501 159.32 22.7201L159.54 22.3101L155.86 20.2601L155.63 20.6601Z" fill="white"/>
</svg>
