<svg width="242" height="40" viewBox="0 0 242 40" fill="none" xmlns="http://www.w3.org/2000/svg">
<path d="M19.1503 19.9799C19.1503 24.2499 15.7303 27.7199 11.5403 27.7199C7.32034 27.7199 3.89035 24.2499 3.89035 19.9799C3.89035 16.7199 5.93034 13.9399 8.79034 12.8199C7.36034 12.4299 5.93035 12.0299 4.51035 11.6099C2.12035 13.5799 0.610352 16.5499 0.610352 19.9399V39.6699H3.89035V27.2399C5.77035 29.5299 8.59036 30.8699 11.6304 30.8699C17.7904 30.8699 22.4404 26.1699 22.4404 19.9399C22.4404 18.4999 22.1603 17.1399 21.6703 15.8899C20.1903 15.5799 18.7104 15.2499 17.2404 14.9099C18.4104 16.2699 19.1503 18.0299 19.1503 19.9799Z" fill="white"/>
<path d="M11.5399 12.2799C13.4099 12.2799 15.0899 12.9899 16.4199 14.1199C18.0499 14.4799 19.6899 14.8299 21.3299 15.1599C19.5799 11.5599 15.8999 9.12988 11.5399 9.12988C9.02992 9.12988 6.73992 9.93988 4.91992 11.2999C6.49992 11.7299 8.08992 12.1499 9.67992 12.5399C10.2799 12.3899 10.8899 12.2799 11.5399 12.2799Z" fill="white"/>
<path d="M42.7807 19.79C42.7807 19.85 42.8008 19.9001 42.8008 19.9601C42.8008 24.2001 39.3707 27.66 35.1507 27.66C30.9507 27.66 27.5407 24.2101 27.5407 19.9601C27.5407 18.9801 27.7408 18.06 28.0708 17.2C26.9808 16.98 25.8907 16.76 24.7907 16.54C24.4507 17.6 24.2607 18.73 24.2607 19.92C24.2607 26.03 28.9008 30.81 34.8208 30.81C38.1308 30.81 41.1307 29.2401 42.9307 26.6301V30.3901H46.0807V20.3C45.6607 20.23 45.2408 20.1801 44.8208 20.1001L42.7807 19.79Z" fill="white"/>
<path d="M35.1405 12.2599C38.9805 12.2599 42.1405 15.1299 42.6805 18.8399L44.9505 19.1599C45.3105 19.2199 45.6805 19.2599 46.0405 19.3199C45.7305 13.5499 41.0605 9.10986 35.1405 9.10986C30.4805 9.10986 26.6005 11.8799 25.0205 15.8799C26.1405 16.0899 27.2605 16.3099 28.3705 16.5099C29.6305 13.9999 32.1705 12.2599 35.1405 12.2599Z" fill="white"/>
<path d="M48.4707 30.4102H51.7507V21.1202C50.6607 20.9802 49.5607 20.8302 48.4707 20.6802V30.4102Z" fill="white"/>
<path d="M51.7507 17.7801C51.7507 14.5201 53.5207 12.4901 56.3807 12.4901C57.5007 12.4901 58.5407 12.77 59.4807 13.31L60.0107 13.62V10.17L59.8107 10.0701C58.7507 9.56005 57.4907 9.29004 56.1707 9.29004C51.5007 9.29004 48.4707 12.57 48.4707 17.6501V19.6601C49.5607 19.8001 50.6507 19.9401 51.7507 20.0601V17.7801Z" fill="white"/>
<path d="M73.3304 24.5402C73.3304 26.8502 70.8604 27.6702 68.7504 27.6702C66.2104 27.6702 64.6104 26.7602 63.5504 24.7102L63.3804 24.3902L60.6504 25.8902L60.8004 26.1902C62.3004 29.1502 65.1504 30.7802 68.8304 30.7802C73.3404 30.7802 76.6104 28.1402 76.6104 24.5002C76.6104 24.2502 76.5904 24.0202 76.5704 23.7902C75.3904 23.6902 74.2204 23.5902 73.0404 23.4902C73.2204 23.7902 73.3304 24.1302 73.3304 24.5402Z" fill="white"/>
<path d="M69.3706 18.3101C66.8406 17.7301 64.6606 17.2301 64.6606 15.3301C64.6606 13.4301 66.7406 12.4 68.7106 12.4C71.0206 12.4 72.4506 13.1501 73.3406 14.8301L73.5106 15.15L76.2406 13.6001L76.0706 13.29C74.6506 10.71 72.0206 9.29004 68.6706 9.29004C64.5206 9.29004 61.3906 11.9 61.3906 15.37C61.3906 19.8601 65.3606 20.7501 68.5506 21.4701C69.2406 21.6201 69.8906 21.7801 70.5006 21.9501C72.4206 22.1101 74.3306 22.2601 76.2506 22.3901C75.1906 19.6601 72.0206 18.9201 69.3706 18.3101Z" fill="white"/>
<path d="M88.9905 27.68C86.2705 27.68 83.9905 26.36 82.6705 24.27C81.4405 24.18 80.2105 24.08 78.9805 23.98C80.5005 28.07 84.2905 30.83 88.9805 30.83C92.9405 30.83 96.1305 29 97.9605 25.67L98.1305 25.36L97.7105 25.13C96.7505 25.09 95.8005 25.03 94.8505 24.99C93.2305 27.17 90.8105 27.68 88.9905 27.68Z" fill="white"/>
<path d="M81.54 21.2401H98.54V19.3501C98.54 13.3001 94.42 9.08008 88.52 9.08008C82.67 9.08008 78.25 13.7401 78.25 19.9301C78.25 20.8401 78.36 21.7101 78.55 22.5501C79.67 22.6201 80.8 22.7001 81.92 22.7701C81.76 22.2901 81.62 21.7801 81.54 21.2401ZM88.53 12.2401C92.36 12.2401 95.03 14.7301 95.26 18.4601H81.63C82.14 14.7301 84.88 12.2401 88.53 12.2401Z" fill="white"/>
<path d="M110.95 27.68C108.99 27.68 107.17 26.82 105.84 25.44C104.46 25.4 103.09 25.34 101.71 25.29C102.21 26.19 102.83 27.03 103.59 27.78C105.58 29.75 108.16 30.84 110.87 30.84C110.9 30.84 110.92 30.84 110.95 30.84C114.89 30.84 118.06 29.03 119.89 25.7401C118.59 25.7301 117.28 25.7 115.98 25.68C114.69 26.97 112.95 27.68 110.95 27.68Z" fill="white"/>
<path d="M103.63 19.9801C103.63 15.8101 106.98 12.2801 110.95 12.2801C113.68 12.2801 115.83 13.5201 117.16 15.8801L117.33 16.1901L120.09 14.6001L119.92 14.3001C118.09 10.9701 114.9 9.14014 110.94 9.14014C105.1 9.14014 100.34 14.0101 100.34 19.9901C100.34 21.2301 100.56 22.4401 100.95 23.5801C102.15 23.6101 103.35 23.6501 104.54 23.6701C103.97 22.5601 103.63 21.3001 103.63 19.9801Z" fill="white"/>
<path d="M137.93 18.31C135.4 17.73 133.22 17.23 133.22 15.33C133.22 13.43 135.3 12.4 137.27 12.4C139.58 12.4 141.01 13.15 141.9 14.83L142.07 15.15L144.8 13.6001L144.63 13.29C143.21 10.71 140.58 9.29004 137.23 9.29004C133.08 9.29004 129.95 11.9 129.95 15.37C129.95 19.86 133.92 20.75 137.11 21.47C138.98 21.89 140.65 22.28 141.43 23.22C142.62 23.17 143.82 23.1 145.01 23.04C144.22 19.77 140.77 18.97 137.93 18.31Z" fill="white"/>
<path d="M137.3 27.68C135.17 27.68 133.7 27.03 132.66 25.61C131.66 25.62 130.66 25.63 129.66 25.64L129.2 25.89L129.35 26.19C130.85 29.15 133.7 30.78 137.38 30.78C141.55 30.78 144.62 28.51 145.07 25.29C143.96 25.33 142.85 25.39 141.73 25.42C141.18 27.06 139.12 27.68 137.3 27.68Z" fill="white"/>
<path d="M150.21 25.0602C150.78 28.6802 153.35 30.8702 157.2 30.8702C158.74 30.8702 160.32 30.3602 161.44 29.5102L161.58 29.4002V25.9902L161 26.4702C160.02 27.2902 158.71 27.7602 157.41 27.7602C155.4 27.7602 154.04 26.7102 153.57 24.9102L150.38 25.0602C150.32 25.0602 150.27 25.0602 150.21 25.0602Z" fill="white"/>
<path d="M153.37 22.55V12.61H161.58V9.57998H153.37V4.22998H150.09V9.57998H145.82V12.61H150.09V22.74C150.15 22.74 150.21 22.7299 150.26 22.7299L153.37 22.55Z" fill="white"/>
<path d="M183.87 9.58984H180.59V19.9398C180.59 20.0598 180.58 20.1798 180.58 20.3098C181.68 20.1998 182.77 20.0998 183.87 19.9998V9.58984Z" fill="white"/>
<path d="M167.69 21.5298C167.61 21.0198 167.57 20.4998 167.57 19.9798V9.58984H164.29V20.1898C164.29 20.7598 164.33 21.2998 164.4 21.8398C164.7 21.8098 165 21.7998 165.3 21.7598L167.69 21.5298Z" fill="white"/>
<path d="M180.08 23.0703C179.22 25.6103 177.25 27.6703 174.01 27.6703C171.23 27.6703 169.4 26.1003 168.42 24.0203L165.48 24.2603C165.3 24.2803 165.12 24.2803 164.94 24.3003C166.29 28.2803 169.65 30.8203 174.01 30.8203C179.07 30.8203 182.69 27.6803 183.62 22.7803C182.6 22.8603 181.58 22.9403 180.56 23.0303L180.08 23.0703Z" fill="white"/>
<path d="M189.62 19.3401C189.96 15.4001 193.2 12.2801 197.17 12.2801C200.47 12.2801 203.27 14.4201 204.34 17.3901L208.1 16.8901V0.330078H204.82L204.78 12.7301C202.89 10.4501 200.07 9.12006 197.04 9.12006C191 9.12006 186.43 13.6601 186.29 19.7301C186.79 19.6801 187.3 19.6301 187.8 19.5701L189.62 19.3401Z" fill="white"/>
<path d="M197.17 27.7202C193.71 27.7202 190.82 25.3702 189.9 22.1702L188.11 22.3802C187.6 22.4402 187.09 22.4702 186.58 22.5202C187.69 27.3602 191.94 30.8702 197.18 30.8702C203.31 30.8702 208.11 26.1002 208.11 20.0202V19.9902L204.8 20.3902C204.59 24.4602 201.27 27.7202 197.17 27.7202Z" fill="white"/>
<path d="M211 30.4099H214.28V19.21C213.19 19.38 212.1 19.52 211 19.64V30.4099Z" fill="white"/>
<path d="M214.28 9.58984H211V16.4998C212.1 16.3598 213.19 16.1999 214.28 16.0199V9.58984Z" fill="white"/>
<path d="M228.24 12.3399C229.38 12.3399 230.46 12.6099 231.43 13.0699L235.95 12.2999C233.99 10.3699 231.28 9.18994 228.24 9.18994C223.92 9.18994 220.18 11.6899 218.41 15.2999L222.91 14.5299C224.29 13.1899 226.17 12.3399 228.24 12.3399Z" fill="white"/>
<path d="M235.86 20.0399C235.86 24.2799 232.45 27.7399 228.25 27.7399C224.03 27.7399 220.6 24.2899 220.6 20.0399C220.6 19.3899 220.7 18.7799 220.85 18.1799L218.14 18.61C217.89 18.65 217.65 18.6899 217.4 18.7299C217.35 19.15 217.32 19.5699 217.32 20.0099C217.32 26.1199 222.12 30.8999 228.25 30.8999C234.36 30.8999 239.14 26.1199 239.14 20.0099C239.14 18.3699 238.78 16.84 238.15 15.46L234.7 16C235.42 17.17 235.86 18.5499 235.86 20.0399Z" fill="white"/>
<path d="M241.39 10.8799C241.39 9.93994 240.65 9.18994 239.71 9.18994C238.77 9.18994 238.03 9.93994 238.03 10.8799C238.03 11.2599 238.18 11.5999 238.38 11.8799L238.64 11.8399C238.42 11.5799 238.28 11.2499 238.28 10.8799C238.28 10.0799 238.92 9.42993 239.7 9.42993C240.49 9.42993 241.11 10.0799 241.11 10.8799C241.11 11.5699 240.64 12.1199 240.02 12.2799L240.06 12.5099C240.83 12.3399 241.39 11.6999 241.39 10.8799Z" fill="white"/>
<path d="M239.611 11.0903C239.841 11.0903 239.941 11.1703 240.051 11.4303L240.191 11.7503H240.461L240.291 11.3603C240.191 11.1803 240.141 11.0503 240.011 11.0003C240.241 10.9303 240.361 10.7703 240.361 10.5503C240.361 10.2203 240.111 10.0303 239.741 10.0303H239.181V11.7603H239.201L239.401 11.7303V11.1003H239.611V11.0903ZM239.401 10.2503H239.731C239.981 10.2503 240.121 10.3703 240.121 10.5603C240.121 10.7803 239.951 10.8703 239.681 10.8703H239.411V10.2503H239.401Z" fill="white"/>
<path d="M239.72 12.3499C239.29 12.3499 238.92 12.1499 238.66 11.8398L238.4 11.8799C238.7 12.2999 239.17 12.5799 239.72 12.5799C239.85 12.5799 239.97 12.5299 240.09 12.4999L240.05 12.2699C239.94 12.3099 239.83 12.3499 239.72 12.3499Z" fill="white"/>
<path d="M239.4 11.7502V11.7202L239.19 11.7502H239.4Z" fill="white"/>
</svg>
