<svg width="656" height="58" viewBox="0 0 656 58" fill="none" xmlns="http://www.w3.org/2000/svg">
<path d="M56.3046 26.608C56.3046 37.2908 48.836 44.1538 37.9358 44.1538H12.5797V56.9639H0.250977V9H37.9358C48.836 9 56.3046 15.9252 56.3046 26.608ZM43.9759 26.608C43.9759 19.3412 38.2153 19.3412 34.5198 19.3412H12.5952V33.7971H34.5198C38.2153 33.8127 43.9759 33.8126 43.9759 26.608Z" fill="white"/>
<path d="M110.728 36.6232V56.9795H98.9425V51.9797C91.8155 55.4734 83.9431 57.6627 74.4094 57.6627C63.1055 57.6627 56.0405 54.0293 56.0405 44.9148C56.0405 34.4339 67.5463 31.1421 80.3719 31.1421C87.2971 31.1421 93.6632 32.2445 98.9425 34.0146C98.9425 26.3441 89.0827 25.723 83.5861 25.723C78.3068 25.723 71.8629 26.2044 63.5713 28.6732L59.3945 20.1021C67.624 17.4314 75.6981 15.9253 84.1295 15.9253C101.008 15.9253 110.588 21.3443 110.728 36.6232ZM98.9425 41.2814C94.8278 39.9771 89.2846 38.8126 81.8159 38.8126C73.043 38.8126 67.7637 40.3187 67.7637 44.4334C67.7637 48.6879 71.6766 49.0295 77.7633 49.0295C84.1295 49.0295 92.9024 47.042 98.9425 44.4334V41.2814Z" fill="white"/>
<path d="M158.645 17.2917V27.0894C154.81 26.1267 151.72 25.723 148.304 25.723C141.72 25.723 134.19 27.2292 127.063 32.7724V56.964H115.339V16.6085H127.063V23.456C133.087 18.037 140.214 15.9253 147.76 15.9253C152.543 15.9253 155.912 16.6085 158.645 17.2917Z" fill="white"/>
<path d="M171.626 42.7875C171.626 47.1041 176.082 48.75 189.172 48.75C201.842 48.75 203.907 47.9271 203.907 44.775C203.907 41.6851 201.982 41.4833 187.805 40.5982C170.057 39.5734 161.362 38.207 161.362 28.4714C161.362 17.9128 173.691 15.9253 188.085 15.9253C203.301 15.9253 214.326 17.9128 214.326 29.0148H202.541C202.541 25.6609 198.286 24.838 187.401 24.838C176.299 24.838 173.147 25.6609 173.147 27.99C173.147 30.521 175.275 30.9402 189.187 31.965C204.947 33.1296 215.708 33.5333 215.708 44.2937C215.708 55.6597 205.429 57.6627 189.87 57.6627C174.312 57.6627 159.934 55.6752 159.934 42.7875H171.626Z" fill="white"/>
<path d="M261.686 42.508H273.331C270.66 52.787 260.661 57.6471 245.723 57.6471C230.367 57.6471 218.458 51.6225 218.458 36.8094C218.458 21.9343 230.041 15.9097 246.407 15.9097C261.763 15.9097 274.014 21.189 274.014 39.5422H230.429C231.733 45.9861 237.898 48.1133 245.708 48.1133C253.798 48.1288 258.735 46.6227 261.686 42.508ZM230.848 32.0891H261.484C259.496 26.4061 253.736 24.8223 246.345 24.8223C238.317 24.8379 232.696 26.4061 230.848 32.0891Z" fill="white"/>
<path d="M304.726 15.9253C319.803 15.9253 330.424 20.863 332.334 32.7103H320.346C318.763 27.5087 313.219 25.723 304.726 25.723C294.649 25.723 288.484 28.3937 288.484 36.8251C288.484 45.1788 294.649 47.865 304.726 47.865C313.219 47.865 318.778 46.0793 320.346 40.8777H332.334C330.408 52.725 319.788 57.6627 304.726 57.6627C288.003 57.6627 276.777 51.6381 276.777 36.8251C276.777 21.9499 288.003 15.9253 304.726 15.9253Z" fill="white"/>
<path d="M355.298 39.2906C355.298 44.368 359.412 46.6971 375.033 46.6971C387.983 46.6971 391.896 45.2531 391.896 41.4954C391.896 37.5205 389.147 36.8372 373.604 36.0764C352.705 35.1137 344.413 31.8219 344.413 21.077C344.413 10.5184 355.173 7.16455 373.123 7.16455C391.212 7.16455 402.175 11.683 402.175 23.5459H389.846C389.846 18.2666 384.567 16.9623 371.757 16.9623C359.63 16.9623 356.757 18.1268 356.757 21.6826C356.757 25.3781 359.63 26.0613 373.62 26.8842C392.532 27.909 404.255 28.9338 404.255 41.0762C404.255 53.8862 392.128 56.4948 374.381 56.4948C354.708 56.4948 343 53.1409 343 39.2906H355.298V39.2906Z" stroke="white" stroke-width="1.5"/>
<path d="M428.431 25.2538V36.8993C428.431 44.7095 429.937 46.697 437.064 46.697C440.76 46.697 442.825 46.697 447.545 46.0138V55.4699C443.633 56.1531 439.192 56.4947 433.773 56.4947C423.354 56.4947 416.646 52.5818 416.646 43.6847V25.2538H406.025V15.456H416.646V7.0868L428.431 3.73291V15.456H447.545V25.2538H428.431Z" stroke="white" stroke-width="1.5"/>
<path d="M507.529 15.4559V55.8114H495.806V48.7465C490.045 53.265 482.095 56.4946 472.297 56.4946C461.537 56.4946 451.46 52.6594 451.335 37.7842L451.475 15.4404H463.26V33.3279C463.26 41.899 466.133 46.3398 475.806 46.3398C483.694 46.3398 492.188 42.3027 495.821 38.0482V15.4559H507.529Z" stroke="white" stroke-width="1.5"/>
<path d="M567.308 1V55.8114H555.585V49.5073C551.206 54.1034 544.141 56.4946 535.446 56.4946C522.496 56.4946 511.394 51.0756 511.394 35.657C511.394 20.2383 522.496 14.7572 535.446 14.7572C544.141 14.7572 551.206 17.1484 555.585 21.7445V1H567.308ZM555.585 35.6725C555.585 27.6604 549.824 24.5705 539.343 24.5705C528.862 24.5705 523.179 27.6604 523.179 35.6725C523.179 43.6225 528.862 46.7124 539.343 46.7124C549.84 46.6969 555.585 43.607 555.585 35.6725Z" stroke="white" stroke-width="1.5"/>
<path d="M583.906 1V11.217H572.183V1H583.906ZM583.906 15.4559V55.8114H572.183V15.4559H583.906Z" stroke="white" stroke-width="1.5"/>
<path d="M587.757 35.6727C587.757 20.7975 598.999 14.7729 615.706 14.7729C632.351 14.7729 643.671 20.7975 643.671 35.6727C643.671 50.4702 632.367 56.5104 615.706 56.5104C598.999 56.4948 587.757 50.4702 587.757 35.6727ZM631.885 35.6727C631.885 27.2414 626.544 24.5707 615.722 24.5707C604.821 24.5707 599.48 27.2414 599.48 35.6727C599.48 44.0264 604.821 46.7126 615.722 46.7126C626.544 46.6971 631.885 44.0264 631.885 35.6727Z" stroke="white" stroke-width="1.5"/>
<path d="M653.562 54.3365C652.583 55.3147 651.388 55.8116 649.959 55.8116C648.531 55.8116 647.335 55.3147 646.357 54.3365C645.379 53.3583 644.882 52.1316 644.882 50.6565C644.882 49.1814 645.379 47.9703 646.357 46.9766C647.335 45.9828 648.546 45.5015 649.944 45.5015C651.341 45.5015 652.552 45.9983 653.531 46.9766C654.509 47.9548 655.006 49.1814 655.006 50.6565C655.021 52.1161 654.54 53.3428 653.562 54.3365ZM649.959 55.3613C651.248 55.3613 652.335 54.911 653.204 54.026C654.074 53.1409 654.509 52.0074 654.509 50.6565C654.509 49.3212 654.074 48.2032 653.204 47.3026C652.335 46.4021 651.248 45.9518 649.959 45.9518C648.686 45.9518 647.599 46.4021 646.73 47.3026C645.86 48.2032 645.425 49.3212 645.425 50.6565C645.425 52.0074 645.86 53.1254 646.73 54.026C647.599 54.911 648.671 55.3613 649.959 55.3613ZM648.577 50.905V53.3583H648.018V47.7685H650.363C650.891 47.7685 651.326 47.9082 651.636 48.1722C651.947 48.4517 652.118 48.8243 652.118 49.2901C652.118 50.0044 651.761 50.4702 651.062 50.6565V50.6721C651.605 50.8118 651.9 51.2466 651.947 51.9608C652.024 52.7838 652.102 53.2185 652.18 53.2807V53.3428H651.636C651.528 53.2496 651.465 52.8148 651.419 52.0229C651.403 51.5882 651.279 51.2932 651.062 51.1224C650.844 50.9516 650.518 50.8739 650.084 50.8739H648.577V50.905ZM648.577 48.2498V50.4547H650.239C651.124 50.4547 651.559 50.082 651.559 49.3522C651.559 49.0106 651.45 48.7312 651.217 48.5448C650.984 48.3585 650.674 48.2498 650.27 48.2498H648.577Z" fill="white"/>
</svg>
