<svg width="489" height="111" viewBox="0 0 489 111" fill="none" xmlns="http://www.w3.org/2000/svg">
<path d="M212.971 18.0884C212.971 28.7712 205.502 35.6343 194.602 35.6343H169.246V48.4444H156.917V0.480469H194.602C205.502 0.480469 212.971 7.40565 212.971 18.0884ZM200.642 18.0884C200.642 10.8217 194.882 10.8217 191.186 10.8217H169.262V25.2776H191.186C194.882 25.2931 200.642 25.2931 200.642 18.0884Z" fill="#E0E0E0"/>
<path d="M267.394 28.1037V48.46H255.609V43.4602C248.481 46.9538 240.609 49.1432 231.075 49.1432C219.771 49.1432 212.707 45.5098 212.707 36.3953C212.707 25.9143 224.212 22.6225 237.038 22.6225C243.963 22.6225 250.329 23.725 255.609 25.4951C255.609 17.8246 245.749 17.2035 240.252 17.2035C234.973 17.2035 228.529 17.6848 220.237 20.1537L216.06 11.5826C224.29 8.91191 232.364 7.40576 240.795 7.40576C257.674 7.40576 267.254 12.8248 267.394 28.1037ZM255.609 32.7619C251.494 31.4576 245.951 30.293 238.482 30.293C229.709 30.293 224.43 31.7992 224.43 35.9139C224.43 40.1684 228.343 40.51 234.429 40.51C240.796 40.51 249.568 38.5225 255.609 35.9139V32.7619Z" fill="#E0E0E0"/>
<path d="M315.312 8.77217V18.5699C311.476 17.6072 308.386 17.2035 304.97 17.2035C298.387 17.2035 290.856 18.7097 283.729 24.2529V48.4445H272.006V8.08897H283.729V14.9365C289.754 9.51748 296.881 7.40576 304.427 7.40576C309.209 7.40576 312.579 8.08897 315.312 8.77217Z" fill="#E0E0E0"/>
<path d="M328.292 34.268C328.292 38.5846 332.749 40.2305 345.838 40.2305C358.508 40.2305 360.573 39.4076 360.573 36.2555C360.573 33.1656 358.648 32.9637 344.472 32.0787C326.724 31.0539 318.029 29.6875 318.029 19.9518C318.029 9.39326 330.357 7.40576 344.751 7.40576C359.968 7.40576 370.992 9.39326 370.992 20.4953H359.207C359.207 17.1414 354.953 16.3184 344.068 16.3184C332.966 16.3184 329.814 17.1414 329.814 19.4705C329.814 22.0014 331.941 22.4207 345.854 23.4455C361.614 24.61 372.374 25.0137 372.374 35.7742C372.374 47.1402 362.095 49.1432 346.537 49.1432C330.978 49.1432 316.6 47.1557 316.6 34.268H328.292Z" fill="#E0E0E0"/>
<path d="M418.352 33.9884H429.997C427.326 44.2675 417.327 49.1276 402.389 49.1276C387.033 49.1276 375.124 43.103 375.124 28.2899C375.124 13.4147 386.707 7.39014 403.073 7.39014C418.429 7.39014 430.68 12.6694 430.68 31.0227H387.095C388.399 37.4665 394.564 39.5938 402.374 39.5938C410.464 39.6093 415.401 38.1032 418.352 33.9884ZM387.514 23.5696H418.15C416.162 17.8866 410.402 16.3028 403.011 16.3028C394.983 16.3183 389.362 17.8866 387.514 23.5696Z" fill="#E0E0E0"/>
<path d="M461.393 7.40576C476.47 7.40576 487.09 12.3434 489 24.1908H477.013C475.429 18.9891 469.886 17.2035 461.393 17.2035C451.315 17.2035 445.151 19.8742 445.151 28.3055C445.151 36.6592 451.315 39.3455 461.393 39.3455C469.886 39.3455 475.445 37.5598 477.013 32.3582H489C487.075 44.2055 476.454 49.1432 461.393 49.1432C444.67 49.1432 433.443 43.1186 433.443 28.3055C433.443 13.4304 444.67 7.40576 461.393 7.40576Z" fill="#E0E0E0"/>
<path d="M168.563 92.9302C168.563 98.0076 172.678 100.337 188.298 100.337C201.248 100.337 205.161 98.8927 205.161 95.1351C205.161 91.1601 202.413 90.4769 186.87 89.7161C165.97 88.7534 157.679 85.4616 157.679 74.7167C157.679 64.1581 168.439 60.8042 186.389 60.8042C204.478 60.8042 215.44 65.3226 215.44 77.1855H203.112C203.112 71.9062 197.832 70.6019 185.022 70.6019C172.895 70.6019 170.023 71.7665 170.023 75.3222C170.023 79.0177 172.895 79.7009 186.885 80.5239C205.798 81.5487 217.521 82.5735 217.521 94.7158C217.521 107.526 205.394 110.134 187.646 110.134C167.973 110.134 156.266 106.781 156.266 92.9302H168.563V92.9302Z" stroke="#E0E0E0" stroke-width="0.5"/>
<path d="M241.697 78.8934V90.5389C241.697 98.3491 243.203 100.337 250.33 100.337C254.026 100.337 256.091 100.337 260.811 99.6534V109.11C256.898 109.793 252.457 110.134 247.038 110.134C236.619 110.134 229.912 106.221 229.912 97.3243V78.8934H219.291V69.0957H229.912V60.7265L241.697 57.3726V69.0957H260.811V78.8934H241.697Z" stroke="#E0E0E0" stroke-width="0.5"/>
<path d="M320.794 69.0956V109.451H309.071V102.386C303.311 106.905 295.361 110.134 285.563 110.134C274.803 110.134 264.725 106.299 264.601 91.4239L264.741 69.0801H276.526V86.9675C276.526 95.5386 279.399 99.9794 289.072 99.9794C296.96 99.9794 305.453 95.9423 309.087 91.6878V69.0956H320.794Z" stroke="#E0E0E0" stroke-width="0.5"/>
<path d="M380.573 54.6396V109.451H368.85V103.147C364.471 107.743 357.406 110.134 348.711 110.134C335.761 110.134 324.659 104.715 324.659 89.2966C324.659 73.878 335.761 68.3968 348.711 68.3968C357.406 68.3968 364.471 70.7881 368.85 75.3841V54.6396H380.573ZM368.85 89.3121C368.85 81.3 363.089 78.2101 352.608 78.2101C342.127 78.2101 336.444 81.3 336.444 89.3121C336.444 97.2621 342.127 100.352 352.608 100.352C363.105 100.337 368.85 97.2466 368.85 89.3121Z" stroke="#E0E0E0" stroke-width="0.5"/>
<path d="M397.171 54.6396V64.8566H385.448V54.6396H397.171ZM397.171 69.0956V109.451H385.448V69.0956H397.171Z" stroke="#E0E0E0" stroke-width="0.5"/>
<path d="M401.022 89.3124C401.022 74.4372 412.264 68.4126 428.972 68.4126C445.617 68.4126 456.936 74.4372 456.936 89.3124C456.936 104.11 445.632 110.15 428.972 110.15C412.264 110.134 401.022 104.11 401.022 89.3124ZM445.151 89.3124C445.151 80.881 439.81 78.2103 428.987 78.2103C418.087 78.2103 412.746 80.881 412.746 89.3124C412.746 97.6661 418.087 100.352 428.987 100.352C439.81 100.337 445.151 97.6661 445.151 89.3124Z" stroke="#E0E0E0" stroke-width="0.5"/>
<path d="M55.4935 110.15C85.7735 110.15 110.32 85.6031 110.32 55.323C110.32 25.043 85.7735 0.496094 55.4935 0.496094C25.2134 0.496094 0.666504 25.043 0.666504 55.323C0.666504 85.6031 25.2134 110.15 55.4935 110.15Z" fill="#E0E0E0"/>
<path d="M144.014 110.15C113.736 110.15 89.1875 85.6012 89.1875 55.323C89.1875 25.0447 113.721 0.480469 144.014 0.480469V110.15Z" fill="#E0E0E0"/>
<path d="M466.827 107.976C465.849 108.954 464.653 109.451 463.225 109.451C461.796 109.451 460.601 108.954 459.623 107.976C458.644 106.998 458.147 105.771 458.147 104.296C458.147 102.821 458.644 101.61 459.623 100.616C460.601 99.6225 461.812 99.1411 463.209 99.1411C464.607 99.1411 465.818 99.638 466.796 100.616C467.774 101.594 468.271 102.821 468.271 104.296C468.287 105.756 467.805 106.982 466.827 107.976ZM463.225 109.001C464.514 109.001 465.601 108.551 466.47 107.666C467.34 106.781 467.774 105.647 467.774 104.296C467.774 102.961 467.34 101.843 466.47 100.942C465.601 100.042 464.514 99.5914 463.225 99.5914C461.952 99.5914 460.865 100.042 459.995 100.942C459.126 101.843 458.691 102.961 458.691 104.296C458.691 105.647 459.126 106.765 459.995 107.666C460.865 108.551 461.936 109.001 463.225 109.001ZM461.843 104.545V106.998H461.284V101.408H463.629C464.157 101.408 464.591 101.548 464.902 101.812C465.212 102.091 465.383 102.464 465.383 102.93C465.383 103.644 465.026 104.11 464.327 104.296V104.312C464.871 104.451 465.166 104.886 465.212 105.6C465.29 106.423 465.368 106.858 465.445 106.92V106.982H464.902C464.793 106.889 464.731 106.454 464.684 105.663C464.669 105.228 464.545 104.933 464.327 104.762C464.11 104.591 463.784 104.514 463.349 104.514H461.843V104.545ZM461.843 101.889V104.094H463.504C464.389 104.094 464.824 103.722 464.824 102.992C464.824 102.65 464.716 102.371 464.483 102.184C464.25 101.998 463.939 101.889 463.535 101.889H461.843Z" fill="#E0E0E0"/>
</svg>
